arm28_optimize_states
version=1
nRows=11
nColumns=21
inDegrees=yes

# SIMM Motion File Header:
name arm28_optimize_states
datacolumns 21
datarows 11
otherdata 1
range 0.04598514 0.06630627
endheader
time	r_shoulder_elev	r_elbow_flex	r_shoulder_elev_u	r_elbow_flex_u	TRIlong.activation	TRIlong.fiber_length	TRIlat.activation	TRIlat.fiber_length	TRImed.activation	TRImed.fiber_length	BIClong.activation	BIClong.fiber_length	BICshort.activation	BICshort.fiber_length	BRA.activation	BRA.fiber_length	DeltAnt.activation	DeltAnt.fiber_length	DeltPost.activation	DeltPost.fiber_length
      0.04598514	      4.70964822	     10.47518237	     63.15899588	   -122.86741001	      0.03103262	      0.14331103	      0.03103262	      0.08536976	      0.03103262	      0.08536976	      0.03103262	      0.14168867	      0.03103262	      0.14475903	      0.03103262	      0.08690999	      0.03103262	      0.15930879	      0.03103262	      0.11260865
      0.04792504	      4.83048491	     10.24036005	     61.44072752	   -119.27440495	      0.03048286	      0.14330173	      0.03048286	      0.08476694	      0.03048286	      0.08476694	      0.03048286	      0.14172756	      0.03048286	      0.14483101	      0.03048286	      0.08691855	      0.03048286	      0.15923663	      0.03048286	      0.11271351
      0.04986494	      4.94810113	     10.01224946	     59.83780485	   -115.94552586	      0.02994826	      0.14329324	      0.02994826	      0.08416501	      0.02994826	      0.08416501	      0.02994826	      0.14176467	      0.02994826	      0.14490067	      0.02994826	      0.08692684	      0.02994826	      0.15916645	      0.02994826	      0.11281532
      0.05180484	      5.06270813	      9.79036591	     58.33526436	   -112.84785355	      0.02942835	      0.14328550	      0.02942835	      0.08356395	      0.02942835	      0.08356395	      0.02942835	      0.14180013	      0.02942835	      0.14496814	      0.02942835	      0.08693479	      0.02942835	      0.15909813	      0.02942835	      0.11291454
      0.05374474	      5.17449181	      9.57428075	     56.92644332	   -109.96609707	      0.02892270	      0.14327842	      0.02892270	      0.08296375	      0.02892270	      0.08296375	      0.02892270	      0.14183406	      0.02892270	      0.14503359	      0.02892270	      0.08694239	      0.02892270	      0.15903154	      0.02892270	      0.11301102
      0.05568463	      5.28362280	      9.36359990	     55.59803254	   -107.27093019	      0.02843088	      0.14327195	      0.02843088	      0.08236437	      0.02843088	      0.08236437	      0.02843088	      0.14186655	      0.02843088	      0.14509712	      0.02843088	      0.08694961	      0.02843088	      0.15896658	      0.02843088	      0.11310523
      0.05762453	      5.39025019	      9.15797704	     54.34448037	   -104.74953261	      0.02795248	      0.14326602	      0.02795248	      0.08176579	      0.02795248	      0.08176579	      0.02795248	      0.14189770	      0.02795248	      0.14515885	      0.02795248	      0.08695644	      0.02795248	      0.15890315	      0.02795248	      0.11319705
      0.05978463	      5.50620063	      8.93457983	     53.02451180	   -102.11930654	      0.02743507	      0.14325998	      0.02743507	      0.08110019	      0.02743507	      0.08110019	      0.02743507	      0.14193090	      0.02743507	      0.14522561	      0.02743507	      0.08696362	      0.02743507	      0.15883420	      0.02743507	      0.11329684
      0.06194472	      5.61937949	      8.71667751	     51.77739933	    -99.65971843	      0.02693327	      0.14325447	      0.02693327	      0.08043553	      0.02693327	      0.08043553	      0.02693327	      0.14196265	      0.02693327	      0.14529040	      0.02693327	      0.08697035	      0.02693327	      0.15876693	      0.02693327	      0.11339401
      0.06412550	      5.73097980	      8.50191213	     50.58151537	    -97.32570683	      0.02644199	      0.14324937	      0.02644199	      0.07976543	      0.02644199	      0.07976543	      0.02644199	      0.14199332	      0.02644199	      0.14535394	      0.02644199	      0.08697670	      0.02644199	      0.15870062	      0.02644199	      0.11348976
      0.06630627	      5.84003574	      8.29208626	     49.44311656	    -95.12772839	      0.02596559	      0.14324469	      0.02596559	      0.07909623	      0.02596559	      0.07909623	      0.02596559	      0.14202269	      0.02596559	      0.14541569	      0.02596559	      0.08698264	      0.02596559	      0.15863584	      0.02596559	      0.11358312
